<?xml version="1.0" encoding="utf-8"?>
<!-- Generator: Adobe Illustrator 23.0.6, SVG Export Plug-In . SVG Version: 6.00 Build 0)  -->
<svg version="1.1" id="Layer_1" xmlns="http://www.w3.org/2000/svg" xmlns:xlink="http://www.w3.org/1999/xlink" x="0px" y="0px"
	 viewBox="0 0 521 120" style="enable-background:new 0 0 521 120;" xml:space="preserve">
<style type="text/css">
	.st0{clip-path:url(#SVGID_2_);}
	.st1{fill:#91C84B;}
	.st2{fill:#D6355A;}
	.st3{fill:none;stroke:#FFFFFF;stroke-width:0.495;}
</style>
<g>
	<defs>
		<rect id="SVGID_1_" width="521" height="120"/>
	</defs>
	<clipPath id="SVGID_2_">
		<use xlink:href="#SVGID_1_"  style="overflow:visible;"/>
	</clipPath>
	<g class="st0">
		<path d="M25,44.6h16.1c3,0,6,0.5,9.1,1.5s5.8,2.5,8.2,4.5c2.4,2,4.4,4.6,5.9,7.6c1.5,3,2.3,6.6,2.3,10.6c0,4.1-0.8,7.6-2.3,10.6
			c-1.5,3-3.5,5.5-5.9,7.6c-2.4,2-5.2,3.5-8.2,4.5S44.1,93,41.1,93H25V44.6z M30,88.7h9.8c3.6,0,6.8-0.6,9.6-1.7
			c2.7-1.1,5-2.6,6.7-4.5c1.8-1.8,3.1-4,4-6.3c0.9-2.4,1.3-4.8,1.3-7.3c0-2.5-0.5-5-1.3-7.3c-0.9-2.4-2.2-4.5-4-6.3
			c-1.8-1.8-4-3.3-6.7-4.5c-2.7-1.1-5.9-1.7-9.6-1.7H30V88.7z"/>
		<path d="M82.2,88.7h26v4.4H77.3V44.6h30.1V49H82.2v16.6h23.5V70H82.2V88.7z"/>
		<path d="M142.2,52.4c-1.1-1.5-2.4-2.6-4-3.5c-1.6-0.9-3.6-1.3-6-1.3c-1.2,0-2.4,0.2-3.6,0.5c-1.2,0.4-2.4,0.9-3.3,1.7
			c-1,0.8-1.8,1.7-2.4,2.8c-0.6,1.1-0.9,2.5-0.9,4c0,1.5,0.3,2.8,0.9,3.8c0.6,1,1.4,1.9,2.4,2.6c1,0.7,2.1,1.3,3.3,1.7
			c1.2,0.5,2.6,0.9,3.9,1.4c1.7,0.5,3.4,1.1,5.1,1.8c1.7,0.6,3.2,1.5,4.6,2.5c1.4,1,2.5,2.3,3.4,3.9s1.3,3.6,1.3,6s-0.5,4.5-1.4,6.3
			c-0.9,1.8-2.1,3.2-3.6,4.4c-1.5,1.1-3.2,2-5.1,2.5c-1.9,0.6-3.8,0.8-5.7,0.8c-1.5,0-2.9-0.2-4.4-0.5c-1.5-0.3-2.9-0.7-4.2-1.3
			c-1.3-0.6-2.6-1.4-3.7-2.3c-1.1-0.9-2.1-2-3-3.2l4.2-3.2c1.1,1.7,2.5,3.2,4.4,4.4c1.9,1.2,4.1,1.7,6.7,1.7c1.2,0,2.5-0.2,3.8-0.6
			c1.3-0.4,2.4-1,3.5-1.8c1-0.8,1.9-1.8,2.5-2.9c0.7-1.2,1-2.5,1-4.1c0-1.7-0.3-3.1-1-4.2c-0.7-1.1-1.5-2.1-2.6-2.8
			c-1.1-0.8-2.4-1.4-3.8-1.9c-1.4-0.5-2.9-1-4.4-1.5c-1.6-0.5-3.2-1.1-4.7-1.7c-1.5-0.6-2.9-1.5-4.2-2.5s-2.2-2.3-3-3.8
			c-0.8-1.5-1.1-3.3-1.1-5.5c0-2.3,0.5-4.3,1.4-6c0.9-1.7,2.2-3.1,3.7-4.2c1.5-1.1,3.2-1.9,5-2.4c1.8-0.5,3.6-0.8,5.4-0.8
			c3.3,0,6.1,0.6,8.4,1.7c2.3,1.2,4.1,2.6,5.3,4.1L142.2,52.4z"/>
		<path d="M162.2,93.1h-4.9V44.6h4.9V93.1z"/>
		<path d="M212.6,53.4c-1.7-1.8-3.7-3.2-6-4.1c-2.3-1-5-1.5-8-1.5c-3.1,0-5.9,0.6-8.4,1.7c-2.5,1.1-4.6,2.7-6.3,4.6
			c-1.7,1.9-3.1,4.2-4,6.7c-0.9,2.6-1.4,5.2-1.4,8.1c0,2.8,0.5,5.5,1.4,8.1c0.9,2.6,2.3,4.8,4,6.7c1.7,1.9,3.8,3.4,6.3,4.6
			c2.5,1.1,5.3,1.7,8.4,1.7c2.7,0,5.3-0.3,7.5-0.9c2.3-0.6,4.1-1.4,5.5-2.3V72h-11.3v-4.4h16.2v21.9c-2.6,1.6-5.5,2.8-8.6,3.6
			c-3.1,0.8-6.2,1.2-9.5,1.2c-3.6,0-7-0.6-10.1-1.9c-3.1-1.3-5.8-3-8-5.3c-2.2-2.3-4-4.9-5.2-8c-1.3-3.1-1.9-6.5-1.9-10.2
			c0-3.7,0.6-7.1,1.9-10.2c1.3-3.1,3-5.8,5.3-8c2.3-2.3,4.9-4,8-5.3c3.1-1.3,6.4-1.9,10-1.9c3.9,0,7.3,0.6,10.1,1.7
			c2.9,1.2,5.3,2.8,7.4,4.8L212.6,53.4z"/>
		<path d="M263.9,85.9h0.1V44.6h4.9v48.5h-6.2l-28.2-41.7h-0.1v41.7h-4.9V44.6h6.2L263.9,85.9z"/>
		<path class="st1" d="M330,93.6h-26.3V37.7h-19.2V15.5h64.7v22.2H330L330,93.6L330,93.6z"/>
		<path class="st1" d="M363,15.5h26.5V71h26v22.6H363V15.5z"/>
		<path class="st1" d="M426.3,54.6c0-6.3,1.1-11.9,3.3-17c2.2-5.1,5.2-9.4,9.1-13c3.8-3.6,8.3-6.4,13.5-8.3c5.2-2,10.7-2.9,16.6-2.9
			c6,0,11.7,1,17.1,2.9c5.4,2,9.9,4.6,13.5,7.9l-16.1,19.4c-1.5-1.9-3.3-3.4-5.5-4.4c-2.2-1-4.7-1.5-7.4-1.5c-2.2,0-4.3,0.4-6.2,1.2
			c-1.9,0.8-3.6,1.9-5,3.4c-1.4,1.5-2.6,3.3-3.4,5.4c-0.8,2.1-1.2,4.4-1.2,7c0,2.6,0.4,4.9,1.3,6.9c0.8,2,2,3.8,3.4,5.2
			c1.4,1.5,3.1,2.6,5,3.4c1.9,0.8,3.9,1.2,6.1,1.2c3,0,5.6-0.6,7.8-1.9c2.2-1.2,3.9-2.7,5.1-4.4l16.1,19.3c-3.5,3.5-7.9,6.3-13,8.4
			c-5.2,2.1-11,3.2-17.6,3.2c-5.9,0-11.4-1-16.6-3c-5.2-2-9.7-4.8-13.5-8.4c-3.8-3.6-6.8-8-9.1-13C427.4,66.3,426.3,60.7,426.3,54.6
			z"/>
		<path class="st2" d="M436.6,14.8c-2.6-1.3-5.3-1.7-8.1-1c-4.2,1-6.9,3.9-8.1,8.7c-1-1.8-2.6-3.1-4.9-3.8c-2.1-0.7-4.2-0.8-6.3-0.2
			c-3.1,0.8-5.4,2.4-7,4.8c-1.6,2.5-2,5.3-1.3,8.3c0.8,3.1,2.5,5.8,5.2,7.9c2.5,1.7,5,3.4,7.5,5.1c2.7,2.2,4.5,5,5.3,8.3
			c0.3,1.3,0.5,2.7,0.6,4.1c6.5-5.3,11.7-10.6,15.7-15.8c5.7-7.6,7.9-14.3,6.5-20C441,18.3,439.3,16.2,436.6,14.8z"/>
		<path class="st3" d="M436.6,14.8c-2.6-1.3-5.3-1.7-8.1-1c-4.2,1-6.9,3.9-8.1,8.7c-1-1.8-2.6-3.1-4.9-3.8c-2.1-0.7-4.2-0.8-6.3-0.2
			c-3.1,0.8-5.4,2.4-7,4.8c-1.6,2.5-2,5.3-1.3,8.3c0.8,3.1,2.5,5.8,5.2,7.9c2.5,1.7,5,3.4,7.5,5.1c2.7,2.2,4.5,5,5.3,8.3
			c0.3,1.3,0.5,2.7,0.6,4.1c6.5-5.3,11.7-10.6,15.7-15.8c5.7-7.6,7.9-14.3,6.5-20C441,18.3,439.3,16.2,436.6,14.8z"/>
	</g>
</g>
</svg>
